<svg width="34" height="34" viewBox="0 0 34 34" fill="none" xmlns="http://www.w3.org/2000/svg">
<g id="g10">
<g id="g12">
<path id="path14" d="M34 17C34 7.61113 26.3888 -2.28882e-05 17 -2.28882e-05C7.61115 -2.28882e-05 0 7.61113 0 17C0 25.4852 6.21665 32.5181 14.3438 33.7935V21.914H10.0273V17H14.3438V13.2547C14.3438 8.99404 16.8817 6.6406 20.7649 6.6406C22.6248 6.6406 24.5703 6.97263 24.5703 6.97263V11.1562H22.4267C20.3148 11.1562 19.6562 12.4667 19.6562 13.811V17H24.3711L23.6174 21.914H19.6562V33.7935C27.7833 32.5181 34 25.4852 34 17Z" fill="#1877F2"/>
<path id="path16" d="M23.6174 21.9141L24.3711 17H19.6563V13.8111C19.6563 12.4667 20.3148 11.1562 22.4267 11.1562H24.5703V6.97266C24.5703 6.97266 22.6248 6.64062 20.7649 6.64062C16.8817 6.64062 14.3438 8.99406 14.3438 13.2547V17H10.0273V21.9141H14.3438V33.7935C15.2093 33.9293 16.0963 34 17 34C17.9037 34 18.7907 33.9293 19.6563 33.7935V21.9141H23.6174Z" fill="white"/>
</g>
</g>
</svg>
