<svg width="34" height="34" viewBox="0 0 34 34" fill="none" xmlns="http://www.w3.org/2000/svg">
<g id="Google svg">
<path id="Vector" d="M31.96 17.354C31.96 16.249 31.8608 15.1865 31.6767 14.1665H17V20.1944H25.3867C25.0254 22.1423 23.9275 23.7928 22.2771 24.8978V28.8078H27.3133C30.26 26.0948 31.96 22.0998 31.96 17.354Z" fill="#4285F4"/>
<path id="Vector_2" d="M17.0001 32.5834C21.2076 32.5834 24.7351 31.188 27.3134 28.808L22.2771 24.898C20.8817 25.833 19.0967 26.3855 17.0001 26.3855C12.9413 26.3855 9.50588 23.6443 8.28047 19.9609H3.07422V23.9984C5.63839 29.0914 10.9084 32.5834 17.0001 32.5834Z" fill="#34A853"/>
<path id="Vector_3" d="M8.28025 19.9606C7.96859 19.0256 7.7915 18.0269 7.7915 16.9998C7.7915 15.9727 7.96859 14.974 8.28025 14.039V10.0015H3.07401C1.98317 12.173 1.41554 14.5697 1.41651 16.9998C1.41651 19.5144 2.01859 21.8944 3.07401 23.9981L8.28025 19.9606Z" fill="#FBBC05"/>
<path id="Vector_4" d="M17.0001 7.61442C19.288 7.61442 21.3421 8.40067 22.9571 9.94484L27.4267 5.47525C24.728 2.96067 21.2005 1.4165 17.0001 1.4165C10.9084 1.4165 5.63839 4.90859 3.07422 10.0015L8.28047 14.039C9.50588 10.3557 12.9413 7.61442 17.0001 7.61442Z" fill="#EA4335"/>
</g>
</svg>
